<?xml version="1.0" encoding="UTF-8"?>
<!-- Generator: Adobe Illustrator 16.0.0, SVG Export Plug-In . SVG Version: 6.00 Build 0)  -->
<svg version="1.2" baseProfile="tiny" id="Layer_1" xmlns="http://www.w3.org/2000/svg" xmlns:xlink="http://www.w3.org/1999/xlink" x="0px" y="0px" width="227px" height="41px" viewBox="0 0 227 41" xml:space="preserve">
<g>
	<path id="Shape_1_" fill="#FFCC00" d="M33.988,31c-1.688-0.002-3.243-0.91-4.06-2.373c-0.817-1.463-0.768-3.25,0.128-4.666   l8.359-13.22c0.847-1.464,2.435-2.351,4.138-2.312c1.703,0.039,3.248,0.998,4.025,2.499c0.777,1.501,0.663,3.303-0.299,4.696   L37.92,28.842C37.072,30.184,35.586,31,33.988,31z"/>
	<ellipse id="Oval" fill="#FB275D" cx="48.392" cy="26.507" rx="4.65" ry="4.493"/>
	<path id="Shape_3_" fill="#333333" d="M205.059,11.083h-6.375l-4.469,11.31l-4.447-11.31h-6.375l7.754,17.87l-4.824,11.813h6.33   L205.059,11.083z M166.779,21.02c0,2.857,2.543,4.734,5.041,4.734c2.455,0,4.865-1.748,4.865-4.734s-2.41-4.736-4.865-4.736   C169.322,16.282,166.779,18.163,166.779,21.02z M176.686,30.998v-2.26c-1.291,1.92-4.307,2.646-5.856,2.646   c-5.123,0-10.25-3.967-10.25-10.364c0-6.399,5.125-10.364,10.25-10.364c1.291,0,4.31,0.425,5.856,2.645v-2.212h5.943V31   L176.686,30.998z M158.889,30.998h-5.943v-2.473c-0.993,1.834-3.401,2.899-5.901,2.899c-5.168,0-9.731-4.051-9.731-10.323   c0-6.394,4.563-10.45,9.731-10.45c2.498,0,4.912,1.022,5.901,2.856V0.234h5.943V30.998z M152.816,20.975   c0-2.984-2.197-4.735-4.652-4.735c-2.543,0-4.652,1.876-4.652,4.735c0,2.951,2.109,4.818,4.652,4.818   C150.664,25.797,152.816,23.834,152.816,20.975z M122.616,20.46c0-3.028,1.594-4.05,3.704-4.05c2.023,0,3.488,1.322,3.488,3.964   v10.622h5.983V19.097c0-5.671-2.842-8.444-7.364-8.444c-2.369,0-4.736,1.322-5.814,3.326v-2.896h-5.982v19.913h5.984L122.616,20.46   L122.616,20.46z M104.474,31.338c-5.685,0-10.426-4.094-10.426-10.366c0-6.271,4.736-10.324,10.426-10.324   s10.465,4.051,10.465,10.324c0,6.274-4.78,10.368-10.465,10.368V31.338z M104.474,25.539c2.498,0,4.565-1.793,4.565-4.564   c0-2.687-2.068-4.521-4.565-4.521c-1.213-0.02-2.381,0.452-3.235,1.305c-0.854,0.853-1.319,2.015-1.288,3.216   c0.002,2.773,2.068,4.566,4.523,4.566V25.539z M83.318,16.413c1.765,0,3.316,1.364,3.316,3.965v10.621h5.943v-11.31   c0-6.013-2.979-9.041-7.753-9.041c-1.42,0-4.091,0.425-6.03,3.54c-1.12-2.303-3.272-3.498-6.455-3.498   c-2.249-0.016-4.3,1.268-5.253,3.284v-2.891h-5.99v19.913h5.985V20.46c0-3.028,1.681-4.05,3.488-4.05   c1.723,0,3.272,1.322,3.317,3.837v10.749h5.985V20.46C79.873,17.565,81.424,16.413,83.318,16.413z"/>
	<path id="Shape" fill="#00CA72" d="M19.582,31c-1.688-0.002-3.243-0.91-4.06-2.373s-0.769-3.25,0.127-4.666l8.361-13.22   c0.859-1.439,2.438-2.304,4.126-2.258c1.688,0.046,3.217,0.995,3.995,2.479c0.778,1.483,0.681,3.269-0.252,4.662l-8.356,13.218   C22.674,30.188,21.184,31.002,19.582,31z"/>
</g>
</svg>